<?xml version="1.0" encoding="UTF-8"?>
<svg xmlns="http://www.w3.org/2000/svg" xmlns:xlink="http://www.w3.org/1999/xlink" width="64px" height="64px" viewBox="0 0 64 64" version="1.1">
<g id="surface1">
<path style=" stroke:none;fill-rule:nonzero;fill:rgb(0%,0%,0%);fill-opacity:1;" d="M 0 32 L 0 64 L 64 64 L 64 0 L 0 0 Z M 35.25 13.773438 C 37.746094 14.132812 41.0625 15.550781 43.339844 17.253906 C 46.886719 19.902344 49.496094 24.011719 50.496094 28.542969 C 50.816406 29.964844 50.894531 33.753906 50.636719 35.40625 C 49.816406 40.820312 46.246094 45.914062 41.332031 48.71875 C 40.167969 49.382812 38.015625 50.226562 36.46875 50.625 C 35.328125 50.917969 34.789062 50.980469 32.753906 51.035156 C 29.886719 51.125 28.503906 50.929688 26.175781 50.164062 C 23.128906 49.152344 20.902344 47.796875 18.675781 45.566406 C 15.988281 42.894531 14.335938 39.859375 13.503906 36.097656 C 13.222656 34.789062 13.105469 31.476562 13.300781 30.015625 C 14.132812 23.65625 17.894531 18.367188 23.640625 15.5 C 27.289062 13.683594 30.898438 13.144531 35.25 13.773438 Z M 35.25 13.773438 "/>
<path style=" stroke:none;fill-rule:nonzero;fill:rgb(0%,0%,0%);fill-opacity:1;" d="M 29.925781 15.117188 C 22.285156 16.0625 16.242188 21.8125 14.886719 29.441406 C 14.578125 31.230469 14.605469 34.253906 14.949219 35.839844 C 16.0625 40.972656 19.441406 45.300781 24.167969 47.667969 C 25.320312 48.242188 27.328125 48.921875 28.800781 49.242188 C 30.335938 49.5625 33.933594 49.5625 35.457031 49.242188 C 42.664062 47.691406 47.859375 42.328125 49.101562 35.136719 C 49.355469 33.691406 49.28125 30.09375 48.972656 28.734375 C 48.292969 25.742188 46.9375 23.105469 44.839844 20.710938 C 42.445312 17.972656 39.089844 16.050781 35.390625 15.296875 C 34.152344 15.039062 31.269531 14.949219 29.925781 15.117188 Z M 35.496094 18.253906 C 36.46875 18.34375 36.492188 18.355469 37.246094 19.035156 L 38.015625 19.738281 L 38.015625 20.914062 C 38.015625 22.257812 37.953125 22.398438 36.964844 23.167969 C 36.339844 23.667969 36.3125 23.679688 35.25 23.679688 L 34.175781 23.679688 L 34.175781 40.832031 L 33.652344 40.832031 L 33.664062 33.304688 C 33.675781 29.171875 33.675781 25.320312 33.675781 24.730469 L 33.664062 23.667969 L 32.167969 23.707031 L 30.65625 23.742188 L 30.65625 25.152344 L 31.566406 25.253906 L 32.472656 25.371094 L 32.652344 27.175781 C 32.960938 30.308594 32.820312 37.671875 32.398438 40.128906 L 32.320312 40.640625 L 31.257812 40.703125 C 30.667969 40.742188 30.15625 40.742188 30.132812 40.71875 C 30.105469 40.691406 30.078125 36.839844 30.078125 32.167969 L 30.078125 23.679688 L 27.636719 23.679688 L 26.867188 22.949219 L 26.113281 22.234375 L 26.113281 19.761719 L 26.789062 19.109375 L 27.457031 18.445312 L 28.609375 18.328125 C 30.003906 18.1875 34.152344 18.152344 35.496094 18.253906 Z M 24.628906 25.320312 C 24.769531 25.742188 24.945312 28.070312 24.960938 29.335938 C 24.960938 30.324219 24.921875 30.59375 24.78125 30.59375 C 24.652344 30.59375 24.589844 30.257812 24.523438 29.210938 C 24.382812 26.855469 24.292969 25.984375 24.191406 25.984375 C 24.0625 25.984375 23.960938 26.816406 23.808594 29.042969 C 23.730469 30.066406 23.640625 31.308594 23.601562 31.808594 L 23.539062 32.703125 L 21.964844 32.742188 L 20.390625 32.792969 L 20.3125 31.988281 C 20.1875 30.476562 20.480469 27.035156 20.863281 25.574219 L 21.003906 25.089844 L 22.785156 25.089844 C 24.382812 25.089844 24.5625 25.113281 24.628906 25.320312 Z M 43.125 25.5625 C 43.496094 26.96875 43.789062 30.539062 43.671875 32.101562 L 43.621094 32.78125 L 42.074219 32.742188 L 40.511719 32.703125 L 40.421875 31.550781 C 40.371094 30.910156 40.269531 29.59375 40.191406 28.59375 C 40.113281 27.609375 40.011719 26.625 39.949219 26.417969 C 39.847656 26.046875 39.847656 26.046875 39.757812 26.355469 C 39.691406 26.523438 39.617188 27.558594 39.566406 28.660156 C 39.5 30.414062 39.460938 30.65625 39.269531 30.695312 C 39.066406 30.734375 39.039062 30.628906 39.039062 29.992188 C 39.039062 29.082031 39.269531 25.921875 39.371094 25.433594 L 39.449219 25.089844 L 42.996094 25.089844 Z M 19.777344 26.753906 C 19.8125 26.816406 19.738281 27.46875 19.597656 28.1875 C 19.46875 28.914062 19.316406 29.976562 19.265625 30.554688 L 19.175781 31.617188 L 17.28125 31.617188 L 17.265625 30.808594 L 17.242188 30.015625 L 17.125 30.746094 C 17.050781 31.15625 16.933594 31.488281 16.859375 31.488281 C 16.652344 31.488281 16.84375 29.261719 17.152344 28.160156 C 17.574219 26.675781 17.625 26.625 18.753906 26.625 C 19.265625 26.625 19.738281 26.675781 19.777344 26.753906 Z M 45.503906 26.753906 L 46.4375 26.753906 L 46.628906 27.25 C 46.9375 27.992188 47.230469 29.746094 47.230469 30.746094 C 47.230469 31.820312 47.054688 31.796875 46.898438 30.695312 L 46.796875 29.886719 L 46.71875 30.71875 L 46.65625 31.550781 L 45.796875 31.589844 C 44.8125 31.628906 44.863281 31.707031 44.734375 30.144531 C 44.683594 29.582031 44.542969 28.582031 44.402344 27.917969 C 44.109375 26.46875 44.109375 26.585938 44.363281 26.675781 C 44.480469 26.714844 44.992188 26.753906 45.503906 26.753906 Z M 29.441406 31.5 C 29.441406 32.179688 29.414062 32.269531 29.222656 32.203125 C 29.09375 32.179688 28.328125 32.113281 27.519531 32.0625 C 25.5625 31.960938 25.601562 31.972656 25.601562 31.28125 L 25.601562 30.71875 L 29.441406 30.71875 Z M 38.375 31.320312 L 38.335938 31.9375 L 37.441406 32.011719 C 36.953125 32.0625 36.160156 32.128906 35.6875 32.179688 L 34.816406 32.242188 L 34.816406 30.71875 L 38.414062 30.71875 Z M 25.0625 31.449219 C 25.023438 31.871094 24.972656 31.9375 24.679688 31.972656 C 24.398438 32.011719 24.320312 31.960938 24.320312 31.78125 C 24.320312 31.246094 24.472656 30.976562 24.792969 30.976562 C 25.074219 30.976562 25.101562 31.027344 25.0625 31.449219 Z M 39.65625 31.527344 C 39.691406 32 39.679688 32.011719 39.335938 31.972656 C 39.078125 31.949219 38.964844 31.859375 38.9375 31.640625 C 38.875 31.179688 39 30.949219 39.320312 31 C 39.566406 31.027344 39.628906 31.128906 39.65625 31.527344 Z M 29.441406 33.28125 C 29.441406 33.523438 29.351562 33.535156 27.519531 33.535156 C 25.691406 33.535156 25.601562 33.523438 25.601562 33.28125 C 25.601562 33.035156 25.691406 33.023438 27.519531 33.023438 C 29.351562 33.023438 29.441406 33.035156 29.441406 33.28125 Z M 38.398438 33.28125 C 38.398438 33.523438 38.308594 33.535156 36.632812 33.535156 C 35.660156 33.535156 34.828125 33.496094 34.777344 33.460938 C 34.738281 33.421875 34.738281 33.304688 34.777344 33.203125 C 34.828125 33.0625 35.210938 33.023438 36.621094 33.023438 C 38.308594 33.023438 38.398438 33.035156 38.398438 33.28125 Z M 24.910156 35.289062 C 24.859375 36.402344 24.769531 37.59375 24.730469 37.953125 L 24.640625 38.59375 L 23.089844 38.628906 C 21.070312 38.667969 20.964844 38.628906 20.671875 37.605469 C 20.429688 36.734375 20.238281 34.023438 20.441406 34.238281 C 20.503906 34.304688 20.660156 34.996094 20.789062 35.761719 C 20.914062 36.542969 21.082031 37.375 21.160156 37.621094 L 21.3125 38.078125 L 22.695312 38.117188 L 24.0625 38.15625 L 24.0625 37.734375 C 24.0625 37.441406 24.101562 37.363281 24.179688 37.492188 C 24.292969 37.671875 24.359375 37.160156 24.523438 34.523438 C 24.589844 33.511719 24.640625 33.28125 24.792969 33.28125 C 24.972656 33.28125 24.984375 33.511719 24.910156 35.289062 Z M 39.550781 34.136719 C 39.550781 34.625 39.589844 35.558594 39.640625 36.25 C 39.707031 37.261719 39.757812 37.464844 39.910156 37.414062 C 40.050781 37.351562 40.078125 37.414062 40 37.734375 L 39.910156 38.144531 L 41.332031 38.144531 C 42.558594 38.144531 42.738281 38.117188 42.789062 37.914062 C 42.957031 37.335938 43.148438 36.300781 43.316406 35.148438 C 43.417969 34.457031 43.53125 33.855469 43.570312 33.816406 C 43.609375 33.777344 43.648438 34.292969 43.648438 34.957031 C 43.648438 36.121094 43.417969 37.59375 43.125 38.296875 L 42.980469 38.65625 L 39.550781 38.65625 L 39.425781 38.335938 C 39.308594 38.015625 39.066406 33.664062 39.140625 33.40625 C 39.167969 33.332031 39.269531 33.28125 39.371094 33.28125 C 39.511719 33.28125 39.550781 33.484375 39.550781 34.136719 Z M 47.054688 35.457031 C 46.9375 35.867188 46.769531 36.414062 46.667969 36.671875 L 46.476562 37.121094 L 45.261719 37.121094 C 44.25 37.121094 44.03125 37.082031 44.03125 36.929688 C 44.03125 36.773438 44.238281 36.734375 45.105469 36.734375 C 46.324219 36.734375 46.246094 36.8125 46.644531 35.328125 C 46.746094 34.945312 46.910156 34.367188 47 34.046875 L 47.167969 33.472656 L 47.207031 34.085938 C 47.230469 34.417969 47.15625 35.035156 47.054688 35.457031 Z M 17.34375 34.90625 C 17.460938 35.457031 17.636719 36.097656 17.742188 36.339844 L 17.921875 36.761719 L 18.929688 36.722656 C 19.828125 36.671875 19.96875 36.699219 20.019531 36.890625 C 20.070312 37.09375 19.957031 37.121094 18.816406 37.121094 L 17.5625 37.121094 L 17.355469 36.570312 C 17.035156 35.671875 16.894531 35.035156 16.894531 34.394531 C 16.894531 33.523438 17.089844 33.753906 17.34375 34.90625 Z M 37.3125 42.074219 L 38.003906 42.6875 L 38.003906 43.957031 L 38.015625 45.210938 L 37.476562 45.722656 C 36.414062 46.707031 36.789062 46.644531 32.050781 46.65625 L 27.789062 46.65625 L 26.945312 45.824219 L 26.113281 45.003906 L 26.113281 42.765625 L 26.828125 42.152344 L 27.53125 41.535156 L 29.222656 41.460938 C 30.15625 41.40625 32.191406 41.394531 33.765625 41.421875 L 36.609375 41.460938 Z M 37.3125 42.074219 "/>
<path style=" stroke:none;fill-rule:nonzero;fill:rgb(0%,0%,0%);fill-opacity:1;" d="M 30.976562 18.957031 C 33.125 19.1875 34.507812 19.355469 34.726562 19.40625 C 34.90625 19.46875 34.945312 19.636719 34.945312 20.609375 C 34.945312 21.761719 34.945312 21.761719 35.300781 21.835938 C 35.496094 21.875 35.710938 21.925781 35.777344 21.953125 C 35.851562 21.976562 35.097656 22.003906 34.125 22.003906 C 32.433594 22.015625 29.554688 22.195312 28.058594 22.375 L 27.367188 22.464844 L 27.648438 22.808594 L 27.917969 23.167969 L 36.300781 23.167969 L 36.839844 22.617188 L 37.375 22.066406 L 37.375 19.738281 L 36.351562 18.816406 L 33.175781 18.828125 C 30.796875 18.839844 30.257812 18.878906 30.976562 18.957031 Z M 30.976562 18.957031 "/>
<path style=" stroke:none;fill-rule:nonzero;fill:rgb(0%,0%,0%);fill-opacity:1;" d="M 30.910156 42.136719 C 31.335938 42.1875 32.34375 42.316406 33.152344 42.40625 L 34.625 42.558594 L 34.664062 43.800781 L 34.699219 45.03125 L 35.175781 45.160156 C 35.636719 45.285156 35.636719 45.285156 34.878906 45.300781 C 33.382812 45.335938 29.3125 45.554688 28.53125 45.644531 L 27.726562 45.734375 L 28.042969 45.992188 C 28.339844 46.222656 28.519531 46.234375 32.34375 46.183594 L 36.351562 46.132812 L 37.375 45.132812 L 37.375 43.96875 C 37.375 42.816406 37.375 42.804688 36.953125 42.394531 L 36.53125 41.984375 L 33.34375 41.996094 C 30.964844 42.007812 30.335938 42.046875 30.910156 42.136719 Z M 30.910156 42.136719 "/>
<path style=" stroke:none;fill-rule:nonzero;fill:rgb(0%,0%,0%);fill-opacity:1;" d="M 46.71875 22.503906 C 46.796875 22.667969 46.898438 22.769531 46.949219 22.734375 C 46.988281 22.679688 46.925781 22.554688 46.796875 22.425781 C 46.566406 22.222656 46.566406 22.222656 46.71875 22.503906 Z M 46.71875 22.503906 "/>
<path style=" stroke:none;fill-rule:nonzero;fill:rgb(0%,0%,0%);fill-opacity:1;" d="M 48.398438 25.601562 C 49.945312 29.285156 50.046875 34.457031 48.640625 38.285156 C 47.679688 40.871094 46.453125 42.789062 44.492188 44.75 C 41.90625 47.320312 38.925781 48.882812 35.199219 49.613281 C 33.421875 49.957031 30.464844 49.921875 28.671875 49.546875 C 25.332031 48.84375 22.363281 47.386719 19.917969 45.261719 C 19.199219 44.621094 18.980469 44.492188 19.070312 44.722656 C 19.199219 45.082031 19.136719 45.195312 18.839844 45.105469 C 18.378906 44.953125 20.621094 46.9375 21.785156 47.707031 C 23.832031 49.050781 25.933594 49.921875 28.46875 50.457031 C 30.207031 50.816406 33.804688 50.855469 35.496094 50.523438 C 37.003906 50.214844 38.71875 49.636719 40.140625 48.960938 C 43.699219 47.246094 46.847656 44.148438 48.613281 40.628906 C 50.878906 36.121094 51.136719 30.695312 49.320312 25.921875 C 49.074219 25.292969 48.859375 24.753906 48.820312 24.71875 C 48.792969 24.679688 48.792969 24.933594 48.820312 25.292969 C 48.871094 25.816406 48.859375 25.882812 48.730469 25.664062 C 48.652344 25.523438 48.574219 25.382812 48.574219 25.34375 C 48.574219 25.304688 48.449219 25.140625 48.292969 24.972656 C 48.039062 24.691406 48.050781 24.753906 48.398438 25.601562 Z M 48.398438 25.601562 "/>
</g>
</svg>
